<svg width="16" height="16" viewBox="0 0 16 16" fill="none" xmlns="http://www.w3.org/2000/svg">
<g clip-path="url(#clip0_997_2630)">
<path d="M0 2C0 0.895431 0.895431 0 2 0H14C15.1046 0 16 0.895431 16 2V11C16 13.7614 13.7614 16 11 16H2C0.895431 16 0 15.1046 0 14V2Z" fill="#4A3AFF"/>
<path d="M4.47189 13C4.08189 13 3.78189 12.895 3.57189 12.685C3.36189 12.475 3.25689 12.175 3.25689 11.785V3.64C3.25689 3.25 3.36189 2.95 3.57189 2.74C3.78189 2.53 4.08189 2.425 4.47189 2.425H7.39689C9.20689 2.425 10.6019 2.885 11.5819 3.805C12.5719 4.715 13.0669 6.015 13.0669 7.705C13.0669 8.555 12.9369 9.31 12.6769 9.97C12.4269 10.62 12.0619 11.17 11.5819 11.62C11.1019 12.07 10.5119 12.415 9.81189 12.655C9.11189 12.885 8.30689 13 7.39689 13H4.47189ZM5.58189 11.095H7.26189C7.83189 11.095 8.32689 11.025 8.74689 10.885C9.16689 10.745 9.51689 10.535 9.79689 10.255C10.0769 9.975 10.2869 9.625 10.4269 9.205C10.5669 8.775 10.6369 8.275 10.6369 7.705C10.6369 6.565 10.3519 5.72 9.7819 5.17C9.22189 4.61 8.38189 4.33 7.26189 4.33H5.58189V11.095Z" fill="white"/>
</g>
<defs>
<clipPath id="clip0_997_2630">
<path d="M0 2C0 0.895431 0.895431 0 2 0H14C15.1046 0 16 0.895431 16 2V11C16 13.7614 13.7614 16 11 16H2C0.895431 16 0 15.1046 0 14V2Z" fill="white"/>
</clipPath>
</defs>
</svg>
